<?xml version="1.0" standalone="no"?>
<!DOCTYPE svg PUBLIC "-//W3C//DTD SVG 20010904//EN"
 "http://www.w3.org/TR/2001/REC-SVG-20010904/DTD/svg10.dtd">
<svg version="1.0" xmlns="http://www.w3.org/2000/svg"
 width="800.000000pt" height="800.000000pt" viewBox="0 0 800.000000 800.000000"
 preserveAspectRatio="xMidYMid meet">
<metadata>
Created by potrace 1.11, written by Peter Selinger 2001-2013
</metadata>
<g transform="translate(0.000000,800.000000) scale(0.100000,-0.100000)"
fill="#000000" stroke="none">
<path d="M3560 7970 c-311 -37 -552 -90 -835 -184 -529 -177 -1069 -500 -1450
-867 l-100 -97 563 -563 563 -562 47 45 c292 278 686 494 1072 587 215 52 333
65 580 65 246 0 365 -13 577 -65 388 -93 782 -309 1073 -586 l46 -43 562 562
563 563 -111 107 c-138 133 -300 260 -500 392 -264 175 -505 300 -775 403
-346 132 -616 197 -1000 243 -223 26 -656 26 -875 0z"/>
<path d="M4010 4795 c0 -3 0 -362 0 -797 l0 -793 1125 -3 c619 -1 1125 -6
1125 -10 0 -13 -47 -126 -92 -222 -156 -335 -415 -652 -728 -893 -158 -122
-402 -254 -620 -335 -90 -33 -228 -70 -430 -112 -174 -37 -603 -37 -780 -1
-293 61 -449 111 -655 210 -137 66 -346 191 -385 231 -3 3 -23 18 -45 35 -22
16 -82 67 -133 113 l-92 83 -562 -562 -562 -562 84 -80 c47 -44 110 -100 140
-126 30 -25 60 -50 66 -56 12 -12 62 -51 119 -94 22 -17 45 -34 50 -39 6 -4
53 -37 105 -73 582 -399 1257 -637 1950 -689 920 -69 1813 171 2570 689 52 36
100 69 105 73 6 5 28 22 50 39 57 43 107 82 119 94 6 6 38 32 71 60 91 76 361
348 452 455 213 253 406 553 543 844 89 190 90 191 146 344 177 476 254 946
241 1482 -6 258 -15 353 -50 565 l-22 130 -1952 3 c-1074 1 -1953 0 -1953 -3z"/>
</g>
</svg>
